<?xml version="1.0" encoding="UTF-8"?>
<svg id="_Слой_2" data-name="Слой 2" xmlns="http://www.w3.org/2000/svg" viewBox="0 0 855.0769 75.2311">
  <defs>
    <style>
      .cls-1 {
        fill: #3b3c98;
      }
    </style>
  </defs>
  <g id="svg17">
    <g id="SvgjsG2382">
      <g id="g11">
        <g id="g9">
          <path id="path3" class="cls-1" d="m39.2306,50.128c-3.2082,0-5.9936,1.7654-7.5061,4.359-.7497,1.2859-1.2119,2.7679-1.2119,4.359,0,4.8036,3.91,8.7179,8.7179,8.7179s8.7179-3.9143,8.7179-8.7179c0-1.591-.4577-3.0731-1.2119-4.359-1.5125-2.5936-4.2935-4.359-7.5061-4.359Z"/>
          <path id="path5" class="cls-1" d="m100.256,50.128c-3.2082,0-5.9936,1.7654-7.5061,4.359-.7497,1.2859-1.2119,2.7679-1.2119,4.359,0,4.8036,3.91,8.7179,8.7179,8.7179s8.7179-3.9143,8.7179-8.7179c0-1.591-.4577-3.0731-1.2119-4.359-1.5125-2.5936-4.2935-4.359-7.5061-4.359Z"/>
          <path id="path7" class="cls-1" d="m126.4097,41.4101v-4.359l-26.1537-7.4756-30.5127-18.6781H21.7948v4.359h26.1537v4.359H0v4.359h52.3075v4.359H8.7179v4.359h21.7948v4.359h-8.7179v4.359H4.359v4.359h21.7948v4.359h-4.359v4.359h-13.0769v4.359h17.4358c0-1.5344.3138-2.9903.802-4.359,1.8046-5.0651,6.5907-8.7179,12.2749-8.7179,5.6884,0,10.4702,3.6528,12.2749,8.7179.4838,1.3687.802,2.8246.802,4.359h34.8717c0-1.5344.3138-2.9903.802-4.359,1.8046-5.0651,6.5907-8.7179,12.2749-8.7179,5.6884,0,10.4702,3.6528,12.2749,8.7179.4838,1.3687.802,2.8246.802,4.359h13.0769v-4.359h4.359v-13.0769h-4.359Z"/>
        </g>
      </g>
    </g>
    <g>
      <path d="m240.8489,74.3464h-25.8882l-1.5487-17.5905h-20.4674l-7.8548,17.5905h-10.7316L206.9954,4.0938h26.2199l7.6336,70.2526Zm-44.2533-25.6675h16.0418l-2.5445-30.092-13.4973,30.092Z"/>
      <path d="m315.0837,20.7996c0,4.3525-1.2164,8.3712-3.6509,12.0591-2.4339,3.689-6.4553,6.4912-12.0591,8.4077l12.8332,33.08h-24.6712l-9.7358-30.646h-1.217l-6.5272,30.646h-23.8971l14.9354-70.2526h29.0967c3.3916,0,6.6002.204,9.6252.6088,3.0234.4058,5.6597,1.2164,7.9106,2.4339,2.2487,1.2164,4.038,2.9139,5.3655,5.0891,1.3281,2.1763,1.9916,5.0332,1.9916,8.5741Zm-31.863,15.8212c1.9175,0,3.558-.6453,4.9232-1.9368,1.3641-1.2894,2.4704-2.857,3.3192-4.7015.8471-1.8434,1.4559-3.8179,1.8257-5.919.3683-2.1022.5529-3.9274.5529-5.4766,0-1.9175-.3318-3.558-.9958-4.9237-.6635-1.3635-2.1017-2.0464-4.3144-2.0464h-4.9785l-5.5319,25.004h5.1996Z"/>
      <path d="m318.2917,63.5048c5.0891-1.6223,10.0289-3.6686,14.8248-6.1402,4.7927-2.4704,9.0712-5.4584,12.8332-8.9617,3.762-3.5022,6.7661-7.5788,9.0164-12.2256,2.2493-4.6467,3.3745-9.9935,3.3745-16.0413,0-2.9493-.2953-5.2361-.8847-6.8595-.5916-1.6223-1.6233-2.4339-3.0985-2.4339-1.327,0-2.5628.627-3.7062,1.8799-1.1434,1.2551-2.1763,2.8409-3.0975,4.7573-.9233,1.9197-1.7704,4.0573-2.5445,6.4172-.7741,2.3609-1.4204,4.6467-1.9358,6.8595h-20.0245l3.6504-16.5953c4.1303-3.5398,8.4807-6.2872,13.0544-8.2423,4.5726-1.953,9.7358-2.9321,15.4894-2.9321,3.5398,0,6.8767.4069,10.0117,1.2175,3.134.8127,5.8642,2.085,8.1876,3.8168,2.3234,1.7339,4.1657,3.9102,5.5314,6.5277,1.3635,2.6186,2.0464,5.7354,2.0464,9.3482,0,2.7292-.4617,5.4208-1.3828,8.0759-.9223,2.6551-2.5445,5.4047-4.8679,8.2423-2.3234,2.8409-5.4584,5.7912-9.404,8.8511-3.9456,3.062-8.9434,6.3613-14.9902,9.9022h24.6712l-2.2128,15.3778h-56.976l2.4339-10.8416Z"/>
      <path d="m407.682,75.2311c-5.2383,0-9.8464-.6828-13.8296-2.0464-3.9821-1.3635-7.8183-3.7792-11.5062-7.246l3.5409-16.5953h18.6975c0-.073-.0558.1847-.1664.7741-.1106.5916-.2212,1.3657-.3318,2.3234-.1106.9598-.2212,2.0292-.3318,3.208-.1106,1.181-.1664,2.3234-.1664,3.4303,0,3.0244.3876,5.1825,1.1617,6.4719.7741,1.2916,1.8617,1.9358,3.2639,1.9358,1.5493,0,3.004-.5153,4.3697-1.5482,1.3646-1.0328,2.5263-2.3234,3.485-3.8726.9577-1.5493,1.7146-3.2639,2.2686-5.1449.5529-1.8799.8299-3.7062.8299-5.4756,0-3.3916-.8686-5.919-2.6004-7.5788-1.7339-1.6598-3.8554-2.4898-6.3613-2.4898.2212-1.4.4788-2.6551.7741-3.761.2212-.9577.4241-1.8263.6088-2.6004.1836-.7741.277-1.1982.277-1.2723,2.4339,0,4.4803-.3876,6.1402-1.1617,1.6588-.7741,3.0234-1.8424,4.0927-3.208,1.0683-1.3646,1.8252-2.9869,2.2686-4.8679.4423-1.881.6635-3.8898.6635-6.0296,0-.8858-.0558-1.7876-.1664-2.7109-.1106-.9212-.3146-1.7704-.6077-2.5445-.2963-.7741-.7193-1.4-1.2723-1.881-.554-.4788-1.3109-.7183-2.2686-.7183-1.9916,0-3.9274,1.1799-5.8084,3.5398-1.881,2.3609-3.5591,6.3806-5.0332,12.0591h-19.0292l3.3186-15.5989c2.2128-1.4011,4.7573-2.6551,7.6336-3.762,2.4339-.9577,5.3661-1.8424,8.7953-2.6551,3.4303-.8106,7.3577-1.2175,11.7832-1.2175,2.8763,0,5.7526.2405,8.6289.7193,2.8774.481,5.4766,1.3474,7.8,2.6004,2.3234,1.2551,4.2044,2.9504,5.642,5.0891,1.4387,2.1398,2.158,4.8679,2.158,8.1865,0,2.5091-.4252,4.7025-1.2723,6.5825-.8493,1.881-2.085,3.5602-3.7062,5.0343-1.6233,1.4763-3.5591,2.8044-5.8084,3.9832-2.2504,1.181-4.8131,2.2869-7.6894,3.3186,2.2128.2212,4.2774.6646,6.196,1.3281,1.9164.6635,3.5956,1.5868,5.0332,2.7657,1.4387,1.181,2.581,2.6186,3.4303,4.315.8471,1.6974,1.2723,3.7245,1.2723,6.0843,0,3.1726-.8493,6.123-2.5445,8.8511-1.6974,2.7292-4.1131,5.0891-7.2471,7.0807-3.135,1.9916-6.9336,3.5398-11.3946,4.6467-4.4642,1.1059-9.4599,1.6588-14.9913,1.6588Z"/>
      <path d="m532.1428,68.3727c-1.8445.8847-3.7438,1.7522-5.6967,2.5993-1.9551.8493-4.039,1.5868-6.2518,2.2128-2.2117.627-4.6285,1.1252-7.246,1.4934-2.6186.3683-5.4766.5529-8.5741.5529-9.885,0-17.4993-2.2128-22.846-6.6372-5.3489-4.4255-8.0212-11.8004-8.0212-22.1267,0-5.9748.9212-11.5985,2.7657-16.8723,1.8434-5.2727,4.5726-9.8829,8.1876-13.8296,3.6128-3.9446,8.0759-7.0613,13.3862-9.3482,5.3102-2.2858,11.3956-3.4303,18.2551-3.4303,3.2445,0,6.2121.2222,8.9059.6646,2.6916.4423,5.1256,1.0146,7.3018,1.7146,2.1741.7022,4.1292,1.4569,5.8632,2.2675,1.7329.8127,3.3004,1.5868,4.7025,2.3234l-3.9832,20.5785h-19.9139c.073-.7365.1664-1.6964.277-2.8763.1106-1.1789.2018-2.3792.2759-3.5956.073-1.2175.1471-2.4157.2212-3.5956.073-1.1789.1106-2.1752.1106-2.9879,0-.5894-.0376-1.2723-.1106-2.0464-.0741-.7741-.2587-1.5299-.5529-2.2675-.2953-.7365-.7569-1.3453-1.3828-1.8263-.627-.4788-1.4569-.7183-2.4898-.7183-1.9186,0-3.6697.7934-5.2544,2.3781-1.5868,1.5868-3.0062,3.689-4.2591,6.3066-1.2551,2.6186-2.362,5.5862-3.3197,8.9059-.9588,3.3186-1.7522,6.6931-2.3781,10.1234-.6281,3.4292-1.1069,6.8037-1.4387,10.1223-.3318,3.3197-.4982,6.2336-.4982,8.7405,0,.7376.0365,1.6598.1106,2.7657.073,1.1069.2942,2.1763.6646,3.208.3683,1.0339.9405,1.9197,1.7146,2.6562.7741.7376,1.8252,1.1059,3.1533,1.1059,2.2847,0,4.4975-1.4194,6.6372-4.2591,2.1387-2.8387,4.0197-7.9106,5.6431-15.2124h20.4668l-4.4255,20.9102Z"/>
      <path d="m548.4052,30.8672c3.762-1.8424,7.6143-3.1898,11.561-4.038,3.9446-.8471,8.3529-1.2723,13.2208-1.2723,4.7197,0,8.6299.3693,11.7274,1.1059,3.0985.7387,5.5679,1.808,7.4124,3.2091,1.8434,1.4011,3.134,3.061,3.8726,4.9785.7365,1.9186,1.1059,4.0927,1.1059,6.5267,0,1.4022-.0934,2.9149-.2759,4.5361-.1857,1.6233-.3876,2.9879-.6088,4.0938l-5.1996,24.3394h-17.8117l-1.9927-7.0807h-.6635c-2.3609,2.5832-5.1084,4.5555-8.2423,5.919-3.135,1.3635-6.2507,2.0464-9.3482,2.0464-1.7704,0-3.5044-.2587-5.1996-.7741-1.6974-.5153-3.208-1.3088-4.5361-2.3781-1.3281-1.0683-2.3974-2.4339-3.208-4.0938s-1.2175-3.6686-1.2175-6.0296c0-3.834,1.0511-6.8767,3.1533-9.127,2.1022-2.2493,4.8679-3.9456,8.2971-5.0891,3.4303-1.1434,7.3018-1.8617,11.6168-2.158,4.315-.2942,8.6471-.4423,12.9996-.4423.1471-.7365.3318-1.7876.5529-3.1533.2222-1.3635.3328-2.5617.3328-3.5956,0-1.327-.3511-2.5617-1.0511-3.7062-.7022-1.1424-2.158-1.7146-4.3708-1.7146-2.5821,0-4.4803.7569-5.6978,2.2686-1.2164,1.5117-2.0099,3.338-2.3781,5.4756h-16.1529l2.1022-9.8464Zm25.4464,19.4716h-1.9916c-2.1408,0-3.966.277-5.4766.8299-1.5128.5529-2.7292,1.2723-3.6515,2.1569-.9223.8858-1.604,1.881-2.0464,2.9879-.4423,1.1059-.6635,2.2128-.6635,3.3186,0,1.7704.4595,3.0975,1.3828,3.9832.9212.8847,2.0088,1.327,3.2639,1.327,1.5482,0,3.0781-.5529,4.5909-1.6598,1.5106-1.1059,2.4511-2.58,2.8215-4.4245l1.7704-8.5193Z"/>
      <path d="m610.4703,26.7734h18.0329l1.6598,8.2982h.7741c1.6964-2.6551,3.8726-4.9044,6.5277-6.7489,2.6551-1.8424,6.1573-2.7657,10.5099-2.7657.2942,0,.7558.0183,1.3828.0548.6259.0387,1.3281.1492,2.1022.3318.7741.1857,1.5847.4434,2.4339.7752.8471.3318,1.677.7934,2.4898,1.3828l-4.8679,22.7902h-12.0591c-.1492-4.5716-.554-7.7614-1.2175-9.5694-.6635-1.8069-1.7339-2.7109-3.208-2.7109-.7387,0-1.5321.1664-2.3792.4982-.8482.3318-1.7146,1.0511-2.5993,2.1569l-7.0807,33.08h-22.569l10.0675-47.573Z"/>
      <path d="m716.3442,74.3464h-23.8971l6.6383-31.3095h-13.6073l-6.6383,31.3095h-23.8971l14.9354-70.2526h24.0077l-6.5277,30.5344h13.4978l6.5277-30.5344h24.1172l-15.1566,70.2526Z"/>
      <path d="m769.8899,26.7734h22.569l-10.1781,47.573h-17.9223l-1.9916-7.0807h-.6635c-1.9197,2.2869-4.519,4.1872-7.8,5.6978-3.2832,1.5106-6.5825,2.2675-9.9022,2.2675-4.4255,0-7.8923-1.123-10.3993-3.3745-2.508-2.2482-3.762-5.1803-3.762-8.7953,0-1.8424.3135-4.1485.9405-6.9142.6259-2.7657,1.1982-5.3661,1.7157-7.8l4.6456-21.5737h22.4595l-5.5325,25.8887c-.1482.5916-.2953,1.2916-.4423,2.1022-.1482.8127-.2953,1.604-.4423,2.3781-.1482.7752-.277,1.5128-.3876,2.2128-.1106.7022-.1653,1.2723-.1653,1.7157,0,1.1059.2383,2.0464.7193,2.8205.4788.7752,1.3442,1.1617,2.5993,1.1617,1.3281,0,2.581-.4423,3.762-1.327,1.1789-.8858,2.1022-1.7329,2.7657-2.5445l7.4124-34.4081Z"/>
      <path d="m810.16,74.3464h-17.9223L807.9472,0h22.6796l-7.1912,33.8541h.7752c2.4339-2.8022,5.1803-4.8121,8.2423-6.0296,3.0588-1.2164,6.1015-1.8252,9.127-1.8252,2.581,0,4.738.3876,6.4719,1.1617,1.7318.7741,3.1146,1.8252,4.1485,3.1533,1.0318,1.327,1.7704,2.9139,2.2128,4.7573.4423,1.8445.6635,3.7996.6635,5.8632,0,1.0339-.0741,2.5832-.2212,4.6467-.1482,2.0657-.4799,4.3697-.9953,6.9153-.5175,2.5445-1.2551,5.1631-2.2128,7.8548-.9598,2.6927-2.2321,5.1438-3.8168,7.3566-1.5868,2.2128-3.5784,4.0208-5.9748,5.4219-2.3974,1.4-5.2544,2.1011-8.5741,2.1011-1.9905,0-3.9274-.2212-5.8073-.6635-1.881-.4423-3.5784-1.0318-5.0901-1.7704-1.5117-.7365-2.8398-1.604-3.9821-2.5993-1.1445-.9963-1.9744-2.0088-2.4898-3.0427h-.7741l-4.9785,7.1912Zm12.5015-9.8464c1.7704,0,3.2445-.9405,4.4255-2.8215,1.1789-1.8799,2.1387-4.0927,2.8763-6.6372.7365-2.5445,1.2723-5.0901,1.604-7.6347s.4982-4.4417.4982-5.6967c0-1.4752-.2405-2.6916-.7193-3.6515-.481-.9577-1.3463-1.4376-2.5993-1.4376-1.4763,0-2.8409.5357-4.0938,1.604-1.2551,1.0693-2.1763,1.9734-2.7657,2.7099l-4.315,19.8033c.5153.8858,1.1982,1.7339,2.0464,2.5445.8471.8127,1.8617,1.2175,3.0427,1.2175Z"/>
    </g>
  </g>
</svg>